<svg width="381" height="312" viewBox="0 0 381 312" fill="none" xmlns="http://www.w3.org/2000/svg">
<path d="M108.565 285.436C102.672 285.021 85.325 295.562 155.377 297.969C225.429 300.376 275.976 297.056 291.165 292.325C306.354 287.511 294.734 284.855 288.758 284.606C282.782 284.357 108.565 285.436 108.565 285.436Z" fill="#1C3177"/>
<path d="M246.179 311.166C257.043 311.166 265.85 309.68 265.85 307.846C265.85 306.013 257.043 304.526 246.179 304.526C235.315 304.526 226.508 306.013 226.508 307.846C226.508 309.68 235.315 311.166 246.179 311.166Z" fill="#1C3177"/>
<path d="M80.345 293.072C100.285 293.072 116.45 290.991 116.45 288.424C116.45 285.857 100.285 283.776 80.345 283.776C60.4048 283.776 44.24 285.857 44.24 288.424C44.24 290.991 60.4048 293.072 80.345 293.072Z" fill="#1C3177"/>
<path d="M305.524 305.439C316.388 305.439 325.195 303.953 325.195 302.119C325.195 300.285 316.388 298.799 305.524 298.799C294.66 298.799 285.853 300.285 285.853 302.119C285.853 303.953 294.66 305.439 305.524 305.439Z" fill="#1C3177"/>
<path d="M99.435 303.779C107.136 303.779 113.379 302.739 113.379 301.455C113.379 300.172 107.136 299.131 99.435 299.131C91.7339 299.131 85.491 300.172 85.491 301.455C85.491 302.739 91.7339 303.779 99.435 303.779Z" fill="#1C3177"/>
<path d="M322.954 283.776C313.326 284.191 314.986 290.001 336.815 290.416C356.154 290.748 375.161 289.918 379.394 287.345C383.876 284.606 372.837 283.527 365.367 283.859C363.707 283.859 322.954 283.776 322.954 283.776Z" fill="#1C3177"/>
<path d="M0.830965 187.745L10.791 123.088C11.538 116.116 17.514 110.804 24.486 110.804H26.312C34.28 110.804 40.588 117.527 40.09 125.495L32.62 171.145C32.537 172.971 33.948 174.548 35.774 174.548H59.844C62.5 174.548 64.575 172.473 64.658 169.817L68.393 124.167C68.476 116.614 74.618 110.555 82.171 110.555H86.072C93.542 110.555 96.53 116.531 96.696 124.001L100.597 280.788C100.68 284.274 97.858 287.179 94.289 287.179H71.879C68.476 287.179 65.654 284.44 65.571 280.954L64.492 204.345H15.522C6.80697 204.262 -0.0820348 196.543 0.830965 187.745Z" fill="#BECDFC"/>
<path d="M10.791 187.745L17.929 123.088C18.676 116.116 24.652 110.804 31.624 110.804C39.592 110.804 45.9 117.527 45.402 125.495L42.58 171.145C42.497 172.971 43.908 174.548 45.734 174.548H69.804C72.46 174.548 74.535 172.473 74.618 169.817L75.199 124.167C75.282 116.614 81.424 110.555 88.977 110.555H92.878C100.348 110.555 106.49 116.531 106.656 124.001L110.557 280.788C110.64 284.274 107.818 287.179 104.249 287.179H81.839C78.436 287.179 75.614 284.44 75.531 280.954L74.452 204.345H25.482C16.767 204.262 9.87797 196.543 10.791 187.745Z" fill="#8EA6F4"/>
<path d="M261.119 187.745L271.079 123.088C271.826 116.116 277.802 110.804 284.774 110.804H286.6C294.568 110.804 300.876 117.527 300.378 125.495L292.908 171.145C292.825 172.971 294.236 174.548 296.062 174.548H320.132C322.788 174.548 324.863 172.473 324.946 169.817L328.681 124.167C328.764 116.614 334.906 110.555 342.459 110.555H346.36C353.83 110.555 356.818 116.531 356.984 124.001L360.885 280.788C360.968 284.274 358.146 287.179 354.577 287.179H332.167C328.764 287.179 325.942 284.44 325.859 280.954L324.78 204.345H275.81C267.095 204.262 260.123 196.543 261.119 187.745Z" fill="#BECDFC"/>
<path d="M271.079 187.745L278.217 123.088C278.964 116.116 284.94 110.804 291.912 110.804C299.88 110.804 306.188 117.527 305.69 125.495L302.868 171.145C302.785 172.971 304.196 174.548 306.022 174.548H330.092C332.748 174.548 334.823 172.473 334.906 169.817L335.487 124.167C335.57 116.614 341.712 110.555 349.265 110.555H353.166C360.636 110.555 366.778 116.531 366.944 124.001L370.845 280.788C370.928 284.274 368.106 287.179 364.537 287.179H342.127C338.724 287.179 335.902 284.44 335.819 280.954L334.74 204.345H285.77C277.055 204.262 270.083 196.543 271.079 187.745Z" fill="#8EA6F4"/>
<path d="M294.651 278.796C293.738 283.195 289.837 286.266 285.355 286.266H227.089C220.615 286.266 215.967 279.875 217.959 273.982C218.125 273.567 218.291 273.069 218.54 272.654C218.623 272.488 218.789 272.239 218.872 272.073C222.773 265.599 231.488 269.915 231.82 270.081C231.82 269.998 231.654 269.832 231.571 269.5C230.824 267.923 229.247 263.358 233.148 261.947C237.962 260.204 242.61 265.267 242.61 265.267C242.61 265.267 245.266 250.161 256.388 250.161C267.51 250.161 264.024 265.516 264.024 265.516C264.024 265.516 270.166 255.888 275.893 258.71C281.454 261.532 277.553 269.832 277.47 270.081C277.802 269.832 286.6 263.856 292.576 270.745C294.9 273.401 295.149 276.306 294.651 278.796Z" fill="#FEC272"/>
<path d="M284.774 286.266H227.172C220.698 286.266 216.05 279.875 218.042 273.982C218.706 275.725 219.868 277.717 222.026 279.46C227.338 283.859 233.646 280.456 233.646 280.456C233.646 280.456 234.061 272.82 238.626 272.82C243.191 272.82 244.353 275.891 244.353 275.891C244.353 275.891 248.337 268.421 253.898 268.255C259.459 268.089 260.04 275.725 260.04 275.725C260.04 275.725 262.945 272.654 265.601 273.401C268.257 274.148 267.344 278.713 267.344 278.713C267.344 278.713 273.486 275.808 279.545 278.298C283.612 280.041 284.525 283.942 284.774 286.266Z" fill="#FF8D76"/>
<path d="M294.651 278.796C293.738 283.195 289.837 286.266 285.355 286.266H284.774C284.774 286.266 294.319 278.381 290.335 272.571C286.351 266.844 274.897 272.737 274.648 272.82C274.731 272.405 277.719 262.86 273.901 261.283C270 259.623 262.945 269.915 262.945 269.915C262.945 269.915 263.36 254.062 255.558 253.232C247.175 252.319 243.938 268.836 243.938 268.836C243.938 268.836 238.294 262.611 234.393 263.939C230.575 265.267 232.069 270.247 232.152 270.496L231.571 269.5C230.824 267.923 229.247 263.358 233.148 261.947C237.962 260.204 242.61 265.267 242.61 265.267C242.61 265.267 245.266 250.161 256.388 250.161C267.51 250.161 264.024 265.516 264.024 265.516C264.024 265.516 270.166 255.888 275.893 258.71C281.454 261.532 277.553 269.832 277.47 270.081C277.802 269.832 286.6 263.856 292.576 270.745C294.9 273.401 295.149 276.306 294.651 278.796Z" fill="#FFD29C"/>
<path d="M127.157 286.266C127.157 286.266 125.331 214.637 125.331 173.469C125.331 132.301 146.828 107.816 190.237 107.816C226.01 107.816 241.448 116.78 245.017 175.295C248.586 233.81 250.08 286.266 250.08 286.266H127.157V286.266Z" fill="#E1ECFF"/>
<path d="M147.99 286.266C147.99 286.266 146.496 214.637 146.496 173.469C146.496 132.301 164.839 107.816 195.383 107.816C225.927 107.816 245.515 116.78 248.586 175.295C251.657 233.81 252.902 286.266 252.902 286.266H147.99V286.266Z" fill="#CDE0FC"/>
<path d="M181.19 216.961C174.467 215.052 169.819 230.241 175.38 233.81C180.941 237.379 189.158 219.202 181.19 216.961Z" fill="#E1ECFF"/>
<path d="M232.982 200.942C228.5 199.697 225.346 209.823 229.081 212.23C232.816 214.554 238.377 202.436 232.982 200.942Z" fill="#E1ECFF"/>
<path d="M178.949 142.344C174.467 141.099 171.313 151.225 175.048 153.632C178.783 155.956 184.344 143.838 178.949 142.344Z" fill="#E1ECFF"/>
<path d="M202.106 157.035C196.877 155.956 193.308 164.754 197.624 166.829C201.94 168.904 208.331 158.363 202.106 157.035Z" fill="#E1ECFF"/>
<path d="M222.607 134.459C216.299 132.716 211.817 146.992 217.129 150.395C222.441 153.798 230.16 136.617 222.607 134.459Z" fill="#E1ECFF"/>
<path d="M224.599 238.541C215.552 235.968 209.244 256.386 216.714 261.283C224.267 266.014 235.389 241.529 224.599 238.541Z" fill="#E1ECFF"/>
<path d="M179.53 215.965C172.807 214.056 168.159 229.245 173.72 232.814C179.281 236.383 187.498 218.206 179.53 215.965Z" fill="#99ADF9"/>
<path d="M231.322 199.863C226.84 198.618 223.686 208.744 227.421 211.151C231.156 213.558 236.717 201.357 231.322 199.863Z" fill="#99ADF9"/>
<path d="M177.289 141.265C172.807 140.02 169.653 150.146 173.388 152.553C177.123 154.96 182.684 142.759 177.289 141.265Z" fill="#99ADF9"/>
<path d="M200.446 155.956C195.217 154.877 191.648 163.675 195.964 165.75C200.28 167.825 206.671 157.284 200.446 155.956Z" fill="#99ADF9"/>
<path d="M220.947 133.463C214.639 131.72 210.157 145.996 215.469 149.399C220.781 152.802 228.5 135.538 220.947 133.463Z" fill="#99ADF9"/>
<path d="M222.939 237.462C213.892 234.889 207.584 255.307 215.054 260.204C222.607 265.018 233.729 240.533 222.939 237.462Z" fill="#99ADF9"/>
<path d="M150.812 147.158C144.089 145.166 139.441 161.517 145.002 165.335C150.563 169.153 158.863 149.565 150.812 147.158Z" fill="#CDE0FC"/>
<path d="M138.445 196.128C132.967 194.468 129.149 207.831 133.714 210.985C138.196 214.139 145.002 198.12 138.445 196.128Z" fill="#CDE0FC"/>
<path d="M160.274 118.523C154.796 116.863 150.978 130.226 155.543 133.38C160.108 136.534 166.831 120.515 160.274 118.523Z" fill="#CDE0FC"/>
<path d="M180.36 198.95H173.471C173.056 198.95 172.89 198.618 172.724 198.203L168.076 189.239L167.827 189.073C167.495 189.073 166.25 189.073 165.918 189.073V198.203C165.918 198.618 165.586 198.95 165.171 198.95H159.112C158.697 198.95 158.365 198.618 158.365 198.203V173.801C158.365 171.975 158.946 171.56 160.523 171.311C162.017 171.062 165.752 170.813 168.408 170.813C175.38 170.813 180.111 173.054 180.111 179.86V180.441C180.111 184.425 177.87 186.832 175.546 187.828L180.941 197.954C181.024 198.12 181.024 198.286 181.024 198.369C180.941 198.701 180.692 198.95 180.36 198.95ZM172.475 179.86C172.475 178.117 171.23 177.204 168.74 177.204C168.491 177.204 166.084 177.287 165.835 177.287V183.263C166.001 183.263 168.325 183.263 168.574 183.263C171.479 183.263 172.475 182.267 172.475 180.524V179.86Z" fill="#99ADF9"/>
<path d="M187.83 198.95H187.498C185.672 198.95 184.178 197.456 184.178 195.63C184.178 193.804 185.672 192.31 187.498 192.31H187.83C189.656 192.31 191.15 193.804 191.15 195.63C191.233 197.456 189.739 198.95 187.83 198.95Z" fill="#99ADF9"/>
<path d="M202.438 198.95H196.296C195.881 198.95 195.549 198.618 195.549 198.203V171.892C195.549 171.477 195.881 171.145 196.296 171.145H202.438C202.853 171.145 203.185 171.477 203.185 171.892V198.203C203.185 198.618 202.853 198.95 202.438 198.95Z" fill="#99ADF9"/>
<path d="M211.236 198.95H210.904C209.078 198.95 207.501 197.456 207.501 195.547C207.501 193.721 208.995 192.227 210.821 192.227H211.153C212.979 192.227 214.556 193.721 214.556 195.63C214.556 197.456 213.062 198.95 211.236 198.95Z" fill="#99ADF9"/>
<path d="M229.081 189.903C228.251 189.903 227.421 189.82 226.425 189.82V198.203C226.425 198.618 226.093 198.95 225.678 198.95H219.702C219.287 198.95 218.955 198.701 218.955 198.286V173.801C218.955 171.975 219.536 171.56 221.113 171.311C223.022 170.979 226.342 170.813 228.998 170.813C234.559 170.813 240.618 172.722 240.618 180.192V180.524C240.618 187.828 234.476 189.903 229.081 189.903ZM233.065 180.192C233.065 178.034 231.571 177.204 229.081 177.204C228.832 177.204 226.674 177.204 226.425 177.204V183.595C226.591 183.595 228.832 183.595 229.081 183.595C231.737 183.595 233.065 182.599 233.065 180.524V180.192Z" fill="#99ADF9"/>
<path d="M201.193 275.393C199.782 282.365 193.474 287.262 186.336 287.262H93.376C83.001 287.262 75.614 277.053 78.768 267.674C79.017 266.927 79.266 266.263 79.681 265.516C79.847 265.184 80.013 264.852 80.262 264.52C86.487 254.228 100.348 261.117 100.929 261.366C100.929 261.283 100.763 260.951 100.514 260.453C99.352 257.963 96.779 250.659 103.087 248.418C110.806 245.596 118.11 253.647 118.11 253.647C118.11 253.647 122.343 229.494 140.188 229.494C158.033 229.494 152.472 253.979 152.472 253.979C152.472 253.979 162.266 238.541 171.396 243.106C180.36 247.588 174.052 260.785 173.886 261.283C174.467 260.868 188.411 251.406 198.039 262.362C201.525 266.678 202.023 271.243 201.193 275.393Z" fill="#FEC272"/>
<path d="M185.423 287.262H93.376C83.001 287.262 75.614 277.053 78.768 267.674C79.847 270.496 81.756 273.65 85.076 276.472C93.625 283.527 103.668 277.966 103.668 277.966C103.668 277.966 104.249 265.765 111.636 265.765C118.94 265.765 120.766 270.662 120.766 270.662C120.766 270.662 127.157 258.793 136.038 258.461C144.919 258.129 145.832 270.33 145.832 270.33C145.832 270.33 150.397 265.433 154.713 266.678C158.946 267.923 157.452 275.227 157.452 275.227C157.452 275.227 167.246 270.662 176.957 274.646C183.597 277.302 185.091 283.527 185.423 287.262Z" fill="#FF8D76"/>
<path d="M201.193 275.393C199.782 282.365 193.474 287.262 186.336 287.262H185.34C185.34 287.262 200.612 274.729 194.221 265.433C187.913 256.22 169.57 265.682 169.238 265.848C169.404 265.267 174.135 249.995 167.993 247.422C161.768 244.849 150.48 261.117 150.48 261.117C150.48 261.117 151.061 235.802 138.694 234.391C125.331 232.897 120.102 259.291 120.102 259.291C120.102 259.291 111.138 249.414 104.83 251.489C98.771 253.564 101.178 261.532 101.344 262.03L100.348 260.453C99.186 257.963 96.613 250.659 102.921 248.418C110.64 245.596 117.944 253.647 117.944 253.647C117.944 253.647 122.177 229.494 140.022 229.494C157.867 229.494 152.306 253.979 152.306 253.979C152.306 253.979 162.1 238.541 171.23 243.106C180.194 247.588 173.886 260.785 173.72 261.283C174.301 260.868 188.245 251.406 197.873 262.362C201.525 266.678 202.023 271.243 201.193 275.393Z" fill="#FFD29C"/>
<path d="M140.769 49.7991C140.769 49.7991 141.931 49.7161 144.006 49.4671C146.081 49.3011 149.069 49.0521 152.638 48.8031C156.207 48.5541 160.44 48.3051 164.922 48.1391C167.163 48.0561 169.487 47.9731 171.894 47.8901C174.301 47.8071 176.708 47.8071 179.032 47.7241C183.846 47.6411 188.66 47.5581 193.225 47.6411C197.707 47.6411 201.94 47.8071 205.592 47.8901C209.161 48.0561 212.232 48.2221 214.307 48.3881C215.386 48.4711 216.216 48.5541 216.714 48.5541C217.295 48.6371 217.627 48.6371 217.627 48.6371C218.208 48.7201 218.54 48.9691 218.457 49.3011C218.374 49.5501 217.876 49.7991 217.378 49.7991H217.295C217.295 49.7991 216.133 49.7991 214.058 49.7161C211.983 49.6331 208.995 49.6331 205.426 49.6331C201.857 49.6331 197.707 49.6331 193.225 49.6331C190.984 49.6331 188.66 49.7161 186.336 49.7161C184.012 49.7161 181.605 49.7991 179.198 49.7991C174.384 49.8821 169.653 49.9651 165.171 50.1311C160.689 50.2141 156.539 50.3801 152.97 50.4631C145.832 50.7121 141.018 50.8781 141.018 50.8781C140.437 50.8781 139.939 50.6291 139.939 50.2971C139.856 50.1311 140.188 49.7991 140.769 49.7991Z" fill="#E1EAF6"/>
<path d="M120.6 55.609C120.6 55.609 120.185 55.692 119.438 55.941C118.691 56.19 117.612 56.522 116.367 57.103C115.786 57.352 115.039 57.767 114.541 58.182C114.209 58.348 114.043 58.597 113.794 58.846C113.628 59.095 113.545 59.261 113.545 59.427C113.545 59.593 113.628 59.676 113.711 59.842C113.794 59.925 113.877 60.008 114.043 60.174C114.126 60.257 114.292 60.423 114.458 60.506C115.122 61.004 116.118 61.502 117.114 62C117.695 62.249 118.193 62.498 118.857 62.664L119.272 62.83L119.521 62.913H119.604C119.604 62.913 119.438 62.83 119.521 62.913H119.604C119.936 62.996 120.268 63.079 120.6 63.245C121.264 63.494 121.928 63.66 122.675 63.909C123.339 64.075 124.003 64.241 124.667 64.407C127.406 65.071 130.477 65.652 133.631 66.15C136.868 66.565 140.105 66.98 143.591 67.312C146.994 67.644 150.48 67.81 153.966 68.059C157.452 68.225 160.938 68.391 164.424 68.474C167.91 68.557 171.313 68.723 174.55 68.723C177.87 68.723 181.107 68.889 184.095 68.889C187.083 68.889 189.988 68.972 192.644 68.972C203.268 68.972 210.323 68.972 210.323 68.972C210.904 68.972 211.402 69.387 211.402 69.802C211.402 70.217 210.987 70.549 210.489 70.632C210.489 70.632 210.074 70.715 209.244 70.798C208.414 70.881 207.169 71.047 205.675 71.213C202.604 71.545 198.205 71.96 192.81 72.292C190.154 72.458 187.249 72.624 184.178 72.707C182.684 72.79 181.107 72.79 179.447 72.873C177.787 72.956 176.21 72.956 174.55 72.956C171.23 72.956 167.744 73.039 164.258 72.956C160.772 72.873 157.203 72.79 153.551 72.624C149.982 72.458 146.413 72.126 142.844 71.794C139.358 71.462 135.872 70.881 132.552 70.3C130.892 69.968 129.232 69.636 127.655 69.304C126.078 68.889 124.501 68.557 123.007 68.059C122.26 67.81 121.513 67.561 120.766 67.395C120.102 67.146 119.438 66.897 118.774 66.648C118.442 66.482 118.11 66.399 117.778 66.233L117.695 66.15L117.529 66.067H117.446L117.197 65.984L116.699 65.735C116.035 65.486 115.454 65.154 114.79 64.822C113.545 64.158 112.383 63.494 111.387 62.581C111.138 62.332 110.889 62.083 110.64 61.834C110.391 61.585 110.225 61.253 110.059 60.921C109.727 60.257 109.644 59.427 109.81 58.68C110.059 57.933 110.474 57.435 110.972 56.937C111.47 56.522 111.885 56.19 112.383 55.941C113.296 55.443 114.209 55.111 114.956 54.862C116.533 54.364 117.778 54.115 118.608 53.949C119.438 53.783 119.936 53.783 119.936 53.783C120.517 53.7 121.015 54.032 121.098 54.53C121.43 55.111 121.098 55.526 120.6 55.609Z" fill="#E1EAF6"/>
<path d="M291.165 68.308C290.003 70.964 288.841 73.454 287.679 75.778C277.968 94.536 266.68 101.176 262.198 100.263C257.218 99.184 259.625 94.038 256.222 91.88C252.736 89.722 243.191 97.69 236.883 93.706C230.658 89.722 232.899 83.165 226.84 82.667C220.864 82.086 214.39 84.493 208.165 80.924C201.94 77.355 204.264 74.533 215.967 65.32C227.753 56.107 234.476 41.001 237.547 24.484C239.954 11.536 245.432 4.31503 252.736 1.49303C260.123 -1.32897 269.419 0.497038 279.13 5.64304C298.386 15.852 301.54 43.823 291.165 68.308Z" fill="#FF97C9"/>
<path d="M287.679 75.6949C277.968 94.4529 266.68 101.093 262.198 100.18C257.218 99.1009 259.625 93.9549 256.222 91.7969C252.736 89.6389 243.191 97.6069 236.883 93.6229C230.658 89.6389 232.899 83.0819 226.84 82.5839C220.864 82.0029 214.39 84.4099 208.165 80.8409C201.94 77.2719 204.264 74.4499 215.967 65.2369C227.753 56.0239 234.476 40.9179 237.547 24.4009C239.954 11.4529 245.432 4.23191 252.736 1.40991C250.91 5.31091 247.175 14.2749 243.606 28.1359C239.124 45.2339 237.381 54.7789 240.12 63.5769C242.859 72.3749 248.586 74.2839 256.969 72.0429C265.352 69.8019 261.949 80.8409 272.739 80.7579C278.051 80.7579 283.529 78.2679 287.679 75.6949Z" fill="#FF8AC7"/>
<path d="M248.669 56.1901C248.337 56.2731 237.547 58.8461 230.409 59.3441C223.271 59.8421 214.141 59.4271 211.319 54.6961C209.991 52.4551 210.157 51.0441 211.651 49.7991C213.394 48.3881 216.963 47.3091 222.192 45.8151C232.069 42.9931 243.357 37.2661 243.357 37.2661C258.712 41.0841 248.669 56.1901 248.669 56.1901Z" fill="#FF97C9"/>
<path d="M248.669 56.1901C248.337 56.2731 237.547 58.8461 230.409 59.3441C223.271 59.8421 214.141 59.4271 211.319 54.6961C209.991 52.4551 210.157 51.0441 211.651 49.7991C213.228 51.2101 215.801 52.7041 219.868 53.9491C231.239 57.4351 248.669 56.1901 248.669 56.1901Z" fill="#FF8AC7"/>
<path d="M228.749 60.672C225.844 60.672 222.856 60.589 220.117 60.257C211.651 59.427 209.659 54.53 209.244 53.285C208.912 52.787 208.746 52.123 208.912 51.376C209.327 49.55 211.568 47.973 215.635 46.562C223.437 43.823 228.583 41.914 234.891 39.341C241.614 36.519 243.689 36.602 244.021 36.685C244.685 36.768 245.183 37.349 245.1 38.096C245.017 38.76 244.436 39.258 243.689 39.175C243.689 39.175 241.863 39.175 235.804 41.665C229.496 44.321 224.267 46.147 216.465 48.969C211.651 50.629 211.319 51.957 211.319 52.04C211.485 52.206 211.568 52.3721 211.568 52.5381C211.568 52.7041 212.73 57.103 220.283 57.85C228.915 58.68 239.539 58.099 244.519 56.605C249.001 55.194 250.163 52.7871 250.827 48.3881C250.91 47.7241 251.574 47.226 252.238 47.309C252.902 47.392 253.4 48.056 253.317 48.72C252.57 53.783 250.91 57.186 245.266 59.012C241.697 60.008 235.306 60.672 228.749 60.672Z" fill="#F774B9"/>
<path d="M263.028 101.176C262.53 101.176 261.949 101.093 261.534 100.927C258.878 100.014 258.214 98.52 257.467 95.449C257.301 94.702 256.803 93.374 255.641 92.793C254.562 92.295 253.068 92.461 251.325 93.291C245.266 96.113 239.954 96.445 235.555 94.121C232.65 92.627 231.571 89.639 230.741 87.315C230.077 85.572 229.496 83.995 228.5 83.746C227.089 83.331 224.682 83.58 222.192 83.746C218.789 83.995 214.971 84.327 211.485 83.58C206.505 82.584 204.845 80.509 204.264 78.932C203.766 77.687 203.683 75.695 205.675 73.122C208.746 69.221 221.196 58.597 221.777 58.182C222.275 57.767 223.105 57.767 223.52 58.348C223.935 58.846 223.935 59.676 223.354 60.091C223.188 60.174 210.572 70.964 207.584 74.699C206.837 75.612 206.09 76.94 206.588 78.102C207.086 79.43 209.078 80.592 211.983 81.173C215.22 81.837 218.789 81.505 222.026 81.256C224.931 81.007 227.421 80.841 229.247 81.339C231.488 82.003 232.318 84.244 233.148 86.485C233.978 88.643 234.808 90.884 236.8 91.963C240.452 93.872 245.017 93.623 250.329 91.133C253.483 89.639 255.558 90.054 256.803 90.635C258.38 91.382 259.459 92.959 259.957 95.034C260.621 97.939 261.036 98.271 262.447 98.686C263.858 99.184 266.763 96.943 268.008 96.196C268.589 95.864 269.336 96.03 269.751 96.611C270.083 97.192 269.917 97.939 269.336 98.354C268.755 98.437 265.767 101.176 263.028 101.176Z" fill="#F774B9"/>
<path d="M233.48 42.3289C233.314 42.3289 233.231 42.3289 233.065 42.2459C232.401 41.9969 232.069 41.3329 232.235 40.6689C232.235 40.5859 234.31 34.1949 235.555 27.9699C236.634 22.5749 238.875 12.8639 242.444 8.04991C246.677 2.23991 254.811 0.745908 255.143 0.662908C255.807 0.496908 256.471 0.828908 256.72 1.49291C256.886 2.15691 256.554 2.82091 255.89 3.06991C255.807 3.06991 248.171 4.48091 244.436 9.54391C241.033 14.1089 238.792 24.3179 238.045 28.4679C236.8 34.8589 234.725 41.4159 234.725 41.4989C234.476 41.9139 233.978 42.3289 233.48 42.3289Z" fill="#F774B9"/>
<path d="M280.956 61.419C280.624 62.083 280.126 62.747 279.545 63.328C274.98 68.474 267.178 71.13 264.854 67.81C263.526 65.901 263.277 63.909 263.858 61.917C265.269 56.439 272.324 51.376 276.723 51.459C281.952 51.459 283.695 56.605 280.956 61.419Z" fill="#1C3177"/>
<path d="M280.956 61.419C280.624 62.083 280.126 62.747 279.545 63.328C274.98 68.474 267.178 71.13 264.854 67.81C263.526 65.901 263.277 63.909 263.858 61.917C268.091 59.012 279.877 58.846 280.956 61.419Z" fill="#F774B9"/>
<path d="M288.841 25.9781C285.189 25.9781 281.62 33.1991 284.691 38.0131C287.762 42.8271 292.825 40.0051 293.904 35.8551C295.149 30.8751 293.987 25.8951 288.841 25.9781Z" fill="white"/>
<path d="M286.932 32.2861C284.774 32.0371 282.616 35.4401 284.359 38.0961C286.102 40.7521 289.09 39.6731 289.754 37.5981C290.584 35.1911 290.003 32.5351 286.932 32.2861Z" fill="#1C3177"/>
<path d="M269.502 22.16C265.601 21.662 260.538 28.717 263.111 34.444C265.684 40.171 271.494 37.847 273.32 33.614C275.561 28.468 275.146 22.907 269.502 22.16Z" fill="white"/>
<path d="M265.103 28.717C262.945 28.468 260.787 31.871 262.53 34.527C264.273 37.183 267.261 36.104 267.925 34.029C268.755 31.622 268.174 29.049 265.103 28.717Z" fill="#1C3177"/>
</svg>
