<svg width="128" height="27" viewBox="0 0 128 27" fill="none" xmlns="http://www.w3.org/2000/svg">
<path d="M5.72032 5.83789V15.9277H10.7652C11.4566 15.9277 12.107 15.7988 12.7164 15.541C13.3258 15.2715 13.859 14.9082 14.316 14.4512C14.7731 13.9941 15.1305 13.4609 15.3883 12.8516C15.6578 12.2305 15.7926 11.5742 15.7926 10.8828C15.7926 10.1914 15.6578 9.54102 15.3883 8.93164C15.1305 8.31055 14.7731 7.77148 14.316 7.31445C13.859 6.85742 13.3258 6.5 12.7164 6.24219C12.107 5.97266 11.4566 5.83789 10.7652 5.83789H5.72032ZM5.72032 26H0.6754V0.792969H10.7652C11.691 0.792969 12.5816 0.916016 13.4371 1.16211C14.2926 1.39648 15.0895 1.73633 15.8277 2.18164C16.5777 2.61523 17.2574 3.14258 17.8668 3.76367C18.4879 4.37305 19.0152 5.05273 19.4488 5.80273C19.8941 6.55273 20.234 7.35547 20.4684 8.21094C20.7145 9.06641 20.8375 9.95703 20.8375 10.8828C20.8375 12.2656 20.5738 13.5723 20.0465 14.8027C19.5191 16.0215 18.7984 17.0879 17.8844 18.002C16.9703 18.916 15.8981 19.6367 14.6676 20.1641C13.4488 20.6914 12.1481 20.9551 10.7652 20.9551H5.72032V26ZM27.0973 26H22.2984V7.17383H23.4586L25.0406 9.40625C25.8141 8.70312 26.693 8.16406 27.6774 7.78906C28.6617 7.40234 29.6813 7.20898 30.7359 7.20898H34.9723V11.9902H30.7359C30.232 11.9902 29.7574 12.084 29.3121 12.2715C28.8668 12.459 28.4801 12.7168 28.152 13.0449C27.8238 13.373 27.566 13.7598 27.3785 14.2051C27.191 14.6504 27.0973 15.125 27.0973 15.6289V26ZM54.0465 16.4199C54.0465 17.8262 53.7945 19.1387 53.2906 20.3574C52.7867 21.5645 52.1012 22.6133 51.234 23.5039C50.3668 24.3828 49.3473 25.0801 48.1754 25.5957C47.0152 26.0996 45.7672 26.3516 44.4313 26.3516C43.107 26.3516 41.859 26.0996 40.6871 25.5957C39.527 25.0801 38.5074 24.3828 37.6285 23.5039C36.7613 22.6133 36.0758 21.5645 35.5719 20.3574C35.068 19.1387 34.816 17.8262 34.816 16.4199C34.816 14.9902 35.068 13.666 35.5719 12.4473C36.0758 11.2285 36.7613 10.1797 37.6285 9.30078C38.5074 8.41016 39.527 7.71289 40.6871 7.20898C41.859 6.70508 43.107 6.45312 44.4313 6.45312C45.7672 6.45312 47.0152 6.69336 48.1754 7.17383C49.3473 7.64258 50.3668 8.31641 51.234 9.19531C52.1012 10.0625 52.7867 11.1113 53.2906 12.3418C53.7945 13.5605 54.0465 14.9199 54.0465 16.4199ZM49.2125 16.4199C49.2125 15.6465 49.0836 14.9492 48.8258 14.3281C48.5797 13.6953 48.2399 13.1562 47.8063 12.7109C47.3727 12.2539 46.8629 11.9082 46.277 11.6738C45.7027 11.4277 45.0875 11.3047 44.4313 11.3047C43.775 11.3047 43.1539 11.4277 42.568 11.6738C41.9938 11.9082 41.4899 12.2539 41.0563 12.7109C40.6344 13.1562 40.3004 13.6953 40.0543 14.3281C39.8082 14.9492 39.6852 15.6465 39.6852 16.4199C39.6852 17.1465 39.8082 17.8203 40.0543 18.4414C40.3004 19.0625 40.6344 19.6016 41.0563 20.0586C41.4899 20.5156 41.9938 20.8789 42.568 21.1484C43.1539 21.4062 43.775 21.5352 44.4313 21.5352C45.0875 21.5352 45.7027 21.4121 46.277 21.166C46.8629 20.9199 47.3727 20.5742 47.8063 20.1289C48.2399 19.6836 48.5797 19.1445 48.8258 18.5117C49.0836 17.8789 49.2125 17.1816 49.2125 16.4199ZM70.7652 10.8828V15.6641H55.9996V10.8828H70.7652ZM79.3102 5.83789V15.9277H84.3551C85.0465 15.9277 85.6969 15.7988 86.3063 15.541C86.9156 15.2715 87.4488 14.9082 87.9059 14.4512C88.3629 13.9941 88.7203 13.4609 88.9781 12.8516C89.2477 12.2305 89.3824 11.5742 89.3824 10.8828C89.3824 10.1914 89.2477 9.54102 88.9781 8.93164C88.7203 8.31055 88.3629 7.77148 87.9059 7.31445C87.4488 6.85742 86.9156 6.5 86.3063 6.24219C85.6969 5.97266 85.0465 5.83789 84.3551 5.83789H79.3102ZM79.3102 26H74.2652V0.792969H84.3551C85.2809 0.792969 86.1715 0.916016 87.027 1.16211C87.8824 1.39648 88.6793 1.73633 89.4176 2.18164C90.1676 2.61523 90.8473 3.14258 91.4566 3.76367C92.0777 4.37305 92.6051 5.05273 93.0387 5.80273C93.484 6.55273 93.8238 7.35547 94.0582 8.21094C94.3043 9.06641 94.4274 9.95703 94.4274 10.8828C94.4274 12.2656 94.1637 13.5723 93.6363 14.8027C93.109 16.0215 92.3883 17.0879 91.4742 18.002C90.5602 18.916 89.4879 19.6367 88.2574 20.1641C87.0387 20.6914 85.7379 20.9551 84.3551 20.9551H79.3102V26ZM100.687 26H95.8883V7.17383H97.0484L98.6305 9.40625C99.4039 8.70312 100.283 8.16406 101.267 7.78906C102.252 7.40234 103.271 7.20898 104.326 7.20898H108.562V11.9902H104.326C103.822 11.9902 103.347 12.084 102.902 12.2715C102.457 12.459 102.07 12.7168 101.742 13.0449C101.414 13.373 101.156 13.7598 100.968 14.2051C100.781 14.6504 100.687 15.125 100.687 15.6289V26ZM127.636 16.4199C127.636 17.8262 127.384 19.1387 126.88 20.3574C126.377 21.5645 125.691 22.6133 124.824 23.5039C123.957 24.3828 122.937 25.0801 121.765 25.5957C120.605 26.0996 119.357 26.3516 118.021 26.3516C116.697 26.3516 115.449 26.0996 114.277 25.5957C113.117 25.0801 112.097 24.3828 111.218 23.5039C110.351 22.6133 109.666 21.5645 109.162 20.3574C108.658 19.1387 108.406 17.8262 108.406 16.4199C108.406 14.9902 108.658 13.666 109.162 12.4473C109.666 11.2285 110.351 10.1797 111.218 9.30078C112.097 8.41016 113.117 7.71289 114.277 7.20898C115.449 6.70508 116.697 6.45312 118.021 6.45312C119.357 6.45312 120.605 6.69336 121.765 7.17383C122.937 7.64258 123.957 8.31641 124.824 9.19531C125.691 10.0625 126.377 11.1113 126.88 12.3418C127.384 13.5605 127.636 14.9199 127.636 16.4199ZM122.802 16.4199C122.802 15.6465 122.673 14.9492 122.416 14.3281C122.17 13.6953 121.83 13.1562 121.396 12.7109C120.963 12.2539 120.453 11.9082 119.867 11.6738C119.293 11.4277 118.677 11.3047 118.021 11.3047C117.365 11.3047 116.744 11.4277 116.158 11.6738C115.584 11.9082 115.08 12.2539 114.646 12.7109C114.224 13.1562 113.89 13.6953 113.644 14.3281C113.398 14.9492 113.275 15.6465 113.275 16.4199C113.275 17.1465 113.398 17.8203 113.644 18.4414C113.89 19.0625 114.224 19.6016 114.646 20.0586C115.08 20.5156 115.584 20.8789 116.158 21.1484C116.744 21.4062 117.365 21.5352 118.021 21.5352C118.677 21.5352 119.293 21.4121 119.867 21.166C120.453 20.9199 120.963 20.5742 121.396 20.1289C121.83 19.6836 122.17 19.1445 122.416 18.5117C122.673 17.8789 122.802 17.1816 122.802 16.4199Z" fill="#24274A"/>
</svg>
