<svg width="452" height="239" viewBox="0 0 452 239" fill="none" xmlns="http://www.w3.org/2000/svg">
<path d="M8.81944 221.63C-11.8287 199.824 10.2593 141.486 43.5648 105.81C84.0648 62.4352 139.898 25.9491 247.819 38.3565C336.935 48.6065 392.264 93.5509 411.083 116.704C441.009 153.5 462.63 205.417 444.606 226.889C414.361 262.931 289.398 201.606 221.616 200.356C153.833 199.106 54.9259 270.241 8.81944 221.63Z" fill="#E1ECFF"/>
<path d="M329.06 186.792H93.8286L44.3517 25.0462C43.8784 23.5014 43.7744 21.867 44.0482 20.2747C44.3219 18.6823 44.9657 17.1765 45.9278 15.8784C46.8899 14.5804 48.1433 13.5264 49.5871 12.8012C51.031 12.0761 52.6249 11.7002 54.2406 11.7036H267.861C270.072 11.7032 272.225 12.4128 274.003 13.728C275.781 15.0432 277.089 16.8945 277.736 19.0092L329.06 186.792Z" fill="#FC9581"/>
<path d="M290.537 167.537H121.778C119.546 167.537 117.374 166.821 115.58 165.494C113.785 164.167 112.464 162.3 111.81 160.167L74.3427 37.6759C74.1043 36.8986 74.0516 36.0762 74.189 35.275C74.3264 34.4737 74.6499 33.7158 75.1336 33.0623C75.6173 32.4089 76.2476 31.8781 76.9738 31.5126C77.7 31.1472 78.5019 30.9573 79.3149 30.9583H248.074C250.306 30.9584 252.478 31.6744 254.272 33.0011C256.067 34.3278 257.388 36.1952 258.042 38.3286L295.509 160.819C295.748 161.597 295.8 162.419 295.663 163.22C295.526 164.022 295.202 164.779 294.718 165.433C294.235 166.086 293.604 166.617 292.878 166.983C292.152 167.348 291.35 167.538 290.537 167.537V167.537Z" fill="#0F2358" fill-opacity="0.9"/>
<path d="M93.8287 186.792H409.796C411.928 186.792 413.972 187.639 415.479 189.146C416.987 190.653 417.833 192.697 417.833 194.829V205.565C417.833 207.696 416.987 209.741 415.479 211.248C413.972 212.755 411.928 213.602 409.796 213.602H101.866C100.81 213.602 99.7652 213.394 98.7901 212.99C97.815 212.586 96.929 211.994 96.1827 211.248C95.4364 210.502 94.8444 209.616 94.4405 208.641C94.0366 207.665 93.8287 206.62 93.8287 205.565V186.792Z" fill="#FF8D76"/>
<path d="M132.338 105.148L151.555 83.699" stroke="#C5DFFF" stroke-width="18" stroke-miterlimit="10" stroke-linecap="round"/>
<path d="M156.093 105.148L127.153 83.699" stroke="#C5DFFF" stroke-width="18" stroke-miterlimit="10" stroke-linecap="round"/>
<path d="M227.236 105.148L246.454 83.699" stroke="#C5DFFF" stroke-width="18" stroke-miterlimit="10" stroke-linecap="round"/>
<path d="M250.991 105.148L222.046 83.699" stroke="#C5DFFF" stroke-width="18" stroke-miterlimit="10" stroke-linecap="round"/>
<path d="M179.736 118.704C179.736 118.704 194.801 110.398 210.102 118.704" stroke="#C5DFFF" stroke-width="18" stroke-miterlimit="10" stroke-linecap="round"/>
<path d="M353.856 92.713C358.748 92.713 362.713 88.7478 362.713 83.8565C362.713 78.9652 358.748 75 353.856 75C348.965 75 345 78.9652 345 83.8565C345 88.7478 348.965 92.713 353.856 92.713Z" fill="#FEC272"/>
<path d="M353.36 62.94C351.619 62.9355 349.931 62.3364 348.576 61.2419C347.221 60.1475 346.281 58.6232 345.911 56.9215C344.494 50.5372 343.596 45.6622 344.846 41.102C346.346 35.6946 350.305 32.5279 354.568 29.5002C357.443 27.4631 359.439 24.3705 359.661 21.6298C359.8 19.8104 359.161 18.2779 357.647 16.815C353.175 12.477 345.934 19.227 345.61 19.5187C345.61 19.5187 339.527 24.6668 335.008 19.2687C330.49 13.8705 335.008 8.5187 335.008 8.5187C337.923 5.81246 341.276 3.62082 344.925 2.03722C353.624 -1.66649 361.911 -0.277599 368.263 5.85666C373.013 10.4585 375.36 16.4816 374.874 22.815C374.314 30.1205 370.022 37.2918 363.388 41.9863C360.272 44.1946 359.684 44.977 359.541 45.227C359.184 46.3567 360.36 51.6483 360.805 53.6437C361.05 54.7591 361.042 55.9152 360.783 57.0273C360.523 58.1395 360.018 59.1794 359.304 60.0708C358.59 60.9623 357.686 61.6826 356.657 62.1791C355.629 62.6756 354.502 62.9355 353.36 62.94V62.94Z" fill="#FEC272"/>
</svg>
