<svg width="24" height="24" viewBox="0 0 24 24" fill="none" xmlns="http://www.w3.org/2000/svg">
<path fill-rule="evenodd" clip-rule="evenodd" d="M15.9242 4.41833C13.331 3.9836 10.6689 3.9836 8.07579 4.41833C7.5878 4.50014 7.20021 4.87507 7.10293 5.35801C6.21785 9.75199 6.16956 14.2735 6.96058 18.6854L7.12413 19.5976L10.7947 16.1106C11.4701 15.4689 12.5298 15.4689 13.2053 16.1106L16.8758 19.5976L17.0394 18.6854C17.8304 14.2735 17.7821 9.75199 16.897 5.35801C16.7997 4.87507 16.4122 4.50014 15.9242 4.41833ZM7.82779 2.93898C10.5851 2.47672 13.4148 2.47672 16.1722 2.93898C17.2714 3.12326 18.147 3.96707 18.3675 5.06181C19.2898 9.64072 19.3401 14.3525 18.5158 18.9501L18.2943 20.1854C18.1084 21.2223 16.8444 21.6367 16.0807 20.9112L12.1722 17.1981C12.0757 17.1064 11.9243 17.1064 11.8278 17.1981L7.91925 20.9112C7.15555 21.6367 5.89151 21.2223 5.70561 20.1854L5.48413 18.9501C4.65981 14.3525 4.71013 9.64073 5.63246 5.06181C5.85298 3.96707 6.72857 3.12326 7.82779 2.93898Z" fill="black"/>
</svg>
