<svg width="42" height="28" viewBox="0 0 42 28" fill="none" xmlns="http://www.w3.org/2000/svg">
<path d="M21.08 3.8802C28.0536 3.8802 34.2728 7.7994 37.3088 14.0002C34.2728 20.201 28.0536 24.1202 21.08 24.1202C14.1064 24.1202 7.88723 20.201 4.85123 14.0002C7.88723 7.7994 14.1064 3.8802 21.08 3.8802ZM21.08 0.200195C11.88 0.200195 4.02323 5.9226 0.840027 14.0002C4.02323 22.0778 11.88 27.8002 21.08 27.8002C30.28 27.8002 38.1368 22.0778 41.32 14.0002C38.1368 5.9226 30.28 0.200195 21.08 0.200195ZM21.08 9.4002C23.6192 9.4002 25.68 11.461 25.68 14.0002C25.68 16.5394 23.6192 18.6002 21.08 18.6002C18.5408 18.6002 16.48 16.5394 16.48 14.0002C16.48 11.461 18.5408 9.4002 21.08 9.4002ZM21.08 5.72019C16.5168 5.72019 12.8 9.43699 12.8 14.0002C12.8 18.5634 16.5168 22.2802 21.08 22.2802C25.6432 22.2802 29.36 18.5634 29.36 14.0002C29.36 9.43699 25.6432 5.72019 21.08 5.72019Z" fill="#111111"/>
</svg>
